<svg width="122.88" height="34.86" xmlns="http://www.w3.org/2000/svg" xml:space="preserve" version="1.1">

 <g>
  <title>Layer 1</title>
  <g fill="#262626" id="svg_1">
   <path id="svg_2" fill="#ffffff" d="m7.25344,1.11189c-2.48276,0.96969 -5.2227,3.72177 -6.08326,7.16649c-1.09795,4.36823 3.46202,6.21526 3.828,5.60574c0.43523,-0.71111 -0.82099,-0.95122 -1.07817,-3.22307c-0.32642,-2.91831 1.13752,-6.18756 2.96744,-7.61901c0.33631,-0.26782 0.32642,0.10159 0.32642,0.79422c0,1.22828 -0.06924,12.24583 -0.06924,14.54538c0,3.11225 -0.13848,4.09118 -0.38577,5.0701c-0.24729,0.98816 -0.65284,1.65309 -0.3462,1.90244c0.33631,0.28629 1.80025,-0.39711 2.64103,-1.4961c1.00893,-1.32063 1.36502,-2.89984 1.42437,-4.61758c0.07913,-2.06868 0.06924,-5.35639 0.07913,-7.23113c0,-1.71774 0.02967,-6.7509 -0.02967,-9.78004c-0.01978,-0.74805 -2.22558,-1.5238 -3.27408,-1.11745l0,0l0,0zm88.34081,14.56385c-0.07913,1.61615 -0.4649,2.88137 -0.93969,3.77718c-0.91991,1.72698 -2.83885,2.26262 -3.64996,-0.22164c-0.44512,-1.34833 -0.4649,-3.61095 -0.14837,-5.50416c0.32642,-1.92091 1.22654,-3.38007 2.73005,-3.24154c1.48372,0.12929 2.16623,1.90244 2.00797,5.19016l0,0l0,0zm-24.89686,10.03862c-0.01978,2.68743 -0.47479,5.0424 -1.44416,5.7258c-1.37492,0.96969 -3.23451,0.24011 -2.84875,-1.71774c0.33631,-1.73621 1.94862,-3.50936 4.2929,-5.67039c0,0 0.00989,0.48946 0,1.66233l0,0l0,0zm-0.37588,-10.04786c-0.07913,1.47763 -0.49457,2.95525 -0.93969,3.78642c-0.91991,1.72698 -2.84875,2.26262 -3.64996,-0.22164c-0.54403,-1.69927 -0.41544,-3.89724 -0.14837,-5.28251c0.3462,-1.80086 1.19687,-3.46319 2.73005,-3.46319c1.48372,0 2.21569,1.5238 2.00797,5.18093l0,0l0,0zm-14.42178,-0.02771c-0.08902,1.56074 -0.41544,2.8629 -0.93969,3.81412c-0.94958,1.71774 -2.81907,2.26262 -3.64996,-0.22164c-0.59349,-1.78239 -0.39566,-4.22047 -0.14837,-5.5411c0.36598,-1.95785 1.28589,-3.33389 2.73005,-3.2046c1.47383,0.13853 2.19591,1.90244 2.00797,5.15322l0,0l0,0zm66.09487,1.81933c-0.36598,0 -0.52425,0.35094 -0.66273,0.93275c-0.47479,2.03174 -0.96937,2.49349 -1.61231,2.49349c-0.71219,0 -1.35513,-1.00663 -1.52329,-3.0199c-0.12859,-1.58845 -0.10881,-4.49752 0.05935,-7.4066c0.02967,-0.60029 -0.13848,-1.1821 -1.8596,-1.76392c-0.74186,-0.24935 -1.81014,-0.61876 -2.34428,0.58182c-1.5035,3.39854 -2.09699,6.09521 -2.23547,7.18496c-0.00989,0.05541 -0.07913,0.06465 -0.09891,-0.06465c-0.08902,-0.87734 -0.28685,-2.47502 -0.30664,-5.81815c0,-0.6557 -0.14837,-1.20981 -0.9298,-1.66233c-0.50447,-0.29553 -2.01786,-0.82193 -2.57178,-0.19394c-0.47479,0.50793 -1.02871,1.87474 -1.59253,3.50013c-0.4649,1.32063 -0.79132,2.2072 -0.79132,2.2072s0.00989,-3.55554 0.00989,-4.90387c0,-0.50793 -0.37588,-0.67417 -0.48468,-0.71111c-0.50447,-0.13853 -1.5035,-0.36941 -1.92884,-0.36941c-0.52425,0 -0.65284,0.27705 -0.65284,0.67417c0,0.05541 -0.07913,4.68223 -0.07913,7.92377c0,0.13853 0,0.29553 0,0.46176c-0.28685,1.48686 -1.22654,3.50936 -2.25526,3.50936c-1.01882,0 -1.5035,-0.84964 -1.5035,-4.7007c0,-2.25338 0.06924,-3.23231 0.10881,-4.8577c0.01978,-0.94199 0.05935,-1.66233 0.05935,-1.81933c-0.00989,-0.4987 -0.93969,-0.75728 -1.36502,-0.84964c-0.43523,-0.09235 -0.8111,-0.12929 -1.10785,-0.11082c-0.41544,0.01847 -0.71219,0.27705 -0.71219,0.62799c0,0.1847 0,0.54487 0,0.54487c-0.53414,-0.78499 -1.40459,-1.3391 -1.9783,-1.4961c-1.54307,-0.43405 -3.16527,-0.04618 -4.38193,1.54227c-0.96937,1.26522 -1.55296,2.69667 -1.78047,4.75611c-0.16816,1.50533 -0.10881,3.02913 0.18794,4.32206c-0.35609,1.45916 -1.02871,2.05021 -1.76068,2.05021c-1.06828,0 -1.83982,-1.62539 -1.75079,-4.42364c0.05935,-1.84703 0.45501,-3.13996 0.89023,-5.01469c0.18794,-0.79422 0.02967,-1.21904 -0.33631,-1.61615c-0.3462,-0.36941 -1.07817,-0.55411 -2.13656,-0.32323c-0.75175,0.16623 -1.82992,0.3417 -2.80918,0.48023c0,0 0.05935,-0.22164 0.10881,-0.60952c0.25718,-2.04097 -2.12667,-1.87474 -2.87842,-1.22828c-0.45501,0.38788 -0.76164,0.84964 -0.88034,1.67156c-0.18794,1.31139 0.95947,1.93015 0.95947,1.93015c-0.37588,1.60692 -1.29578,3.7033 -2.24537,5.21787c-0.50447,0.81269 -0.90012,1.41298 -1.40459,2.05944c0,-0.24011 0,-0.48023 0,-0.71111c-0.00989,-3.38007 0.03957,-6.03056 0.05935,-6.99102c0.01978,-0.94199 0.05935,-1.64386 0.05935,-1.80086c-0.00989,-0.36941 -0.2374,-0.50793 -0.71219,-0.6834c-0.42533,-0.157 -0.91991,-0.25858 -1.43426,-0.29553c-0.65284,-0.07388 -1.0485,0.24935 -1.03861,0.62799c0,0.07388 0,0.51717 0,0.51717c-0.53414,-0.78499 -1.40459,-1.3391 -1.9783,-1.4961c-1.54307,-0.42482 -3.16527,-0.04618 -4.38193,1.54227c-0.96937,1.26522 -1.60242,3.03837 -1.78047,4.73764c-0.16816,1.58845 -0.13848,2.92755 0.08902,4.06347c-0.24729,1.13593 -0.94958,2.32726 -1.75079,2.32726c-1.01882,0 -1.60242,-0.84964 -1.60242,-4.7007c0,-2.25338 0.06924,-3.23231 0.10881,-4.8577c0.01978,-0.94199 0.05935,-1.66233 0.05935,-1.81933c-0.00989,-0.4987 -0.93969,-0.75728 -1.36502,-0.84964c-0.45501,-0.10159 -0.84078,-0.12929 -1.13752,-0.11082c-0.39566,0.02771 -0.67262,0.36017 -0.67262,0.60029l0,0.57258c-0.53414,-0.78499 -1.40459,-1.3391 -1.9783,-1.4961c-1.54307,-0.42482 -3.15538,-0.04618 -4.38193,1.54227c-0.80121,1.03434 -1.44416,2.1795 -1.78047,4.71917c-0.09891,0.72958 -0.13848,1.42222 -0.12859,2.05944c-0.31653,1.81933 -1.73101,3.92494 -2.87842,3.92494c-0.67262,0 -1.31557,-1.21904 -1.31557,-3.82336c0,-3.47242 0.2275,-8.404 0.26707,-8.88423c0,0 1.45405,-0.01847 1.7409,-0.02771c0.72208,-0.00924 1.38481,0.00924 2.35417,-0.03694c0.48468,-0.01847 0.94958,-1.65309 0.45501,-1.84703c-0.2275,-0.09235 -1.82992,-0.17547 -2.47287,-0.1847c-0.53414,-0.00924 -2.02775,-0.11082 -2.02775,-0.11082s0.13848,-3.27848 0.16816,-3.62018c0.02967,-0.28629 -0.37588,-0.43405 -0.60338,-0.5264c-0.55392,-0.22164 -1.05839,-0.32323 -1.65188,-0.44329c-0.82099,-0.157 -1.18698,0 -1.25622,0.63723c-0.10881,0.97893 -0.16816,3.84183 -0.16816,3.84183c-0.60338,0 -2.65092,-0.11082 -3.24441,-0.11082c-0.55392,0 -1.1573,2.23491 -0.38577,2.26262c0.89023,0.02771 2.4333,0.05541 3.45213,0.09235c0,0 -0.04946,5.02393 -0.04946,6.5662c0,0.16623 0,0.32323 0,0.48023c-0.56381,2.74284 -2.552,4.22047 -2.552,4.22047c0.42533,-1.81009 -0.44512,-3.1769 -2.01786,-4.33129c-0.57371,-0.42482 -1.72112,-1.22828 -2.99712,-2.11485c0,0 0.74186,-0.6834 1.3947,-2.05021c0.4649,-0.96969 0.48468,-2.07791 -0.65284,-2.32726c-1.87938,-0.40635 -3.44224,0.88658 -3.89724,2.26262c-0.35609,1.07128 -0.16816,1.8655 0.53414,2.68743c0.04946,0.05541 0.10881,0.12006 0.16816,0.1847c-0.42533,0.76652 -1.00893,1.79162 -1.5035,2.59508c-1.37492,2.21644 -2.41352,3.97112 -3.19495,3.97112c-0.62316,0 -0.62316,-1.78239 -0.62316,-3.45395c0,-1.44069 0.10881,-3.60171 0.20772,-5.83662c0.02967,-0.73881 -0.36598,-1.16363 -1.02871,-1.54227c-0.40555,-0.23088 -1.26611,-0.69264 -1.76068,-0.69264c-0.75175,0 -2.8982,0.09235 -4.93585,5.59651c-0.25718,0.69264 -0.76164,1.95785 -0.76164,1.95785l0.03957,-6.61238c0,-0.157 -0.08902,-0.30476 -0.28685,-0.40635c-0.3462,-0.17547 -1.25622,-0.5264 -2.07721,-0.5264c-0.38577,0 -0.5836,0.16623 -0.5836,0.50793l-0.08902,10.34338c0,0.78499 0.01978,1.69927 0.10881,2.10562c0.07913,0.39711 0.21761,0.72958 0.38577,0.92352s0.35609,0.3417 0.67262,0.40635c0.29674,0.05541 1.90906,0.24935 1.99808,-0.32323c0.09891,-0.69264 0.10881,-1.44069 0.94958,-4.2297c1.31557,-4.34053 3.04658,-6.45538 3.84779,-7.20343c0.13848,-0.12929 0.30664,-0.13853 0.29674,0.07388c-0.03957,0.95122 -0.15826,3.32466 -0.2374,5.34716c-0.21761,5.40257 0.83088,6.4092 2.33439,6.4092c1.14741,0 2.76961,-1.07128 4.51051,-3.76795c1.08806,-1.6808 2.13656,-3.33389 2.8982,-4.52523c0.52425,0.45252 1.11774,0.94199 1.71123,1.46839c1.37492,1.21904 1.82992,2.37344 1.52329,3.47242c-0.2275,0.8404 -1.08806,1.69927 -2.62124,0.85887c-0.44512,-0.24935 -0.64295,-0.43405 -1.08806,-0.71111c-0.2374,-0.14776 -0.61327,-0.19394 -0.83088,-0.03694c-0.57371,0.40635 -0.90012,0.92352 -1.08806,1.55151c-0.17805,0.61876 0.48468,0.95122 1.16719,1.23751c0.59349,0.24935 1.86949,0.47099 2.68059,0.4987c3.16527,0.10159 5.70738,-1.43145 7.47796,-5.36563c0.31653,3.39854 1.66177,5.32869 4.00605,5.32869c1.56285,0 3.1356,-1.88397 3.81811,-3.74024c0.19783,0.75728 0.48468,1.41298 0.86056,1.96709c1.80025,2.66896 5.30183,2.09638 7.05263,-0.17547c0.54403,-0.70187 0.62316,-0.95122 0.62316,-0.95122c0.25718,2.13332 2.09699,2.88137 3.15538,2.88137c1.18698,0 2.40363,-0.51717 3.2543,-2.31803c0.09891,0.19394 0.20772,0.37864 0.32642,0.55411c1.80025,2.66896 5.30183,2.08715 7.05263,-0.17547c0.07913,-0.10159 0.15826,-0.20317 0.21761,-0.28629l0.04946,1.40374c0,0 -0.99904,0.85887 -1.61231,1.38527c-2.71027,2.31803 -4.76769,4.08194 -4.91607,6.12291c-0.19783,2.61355 2.07721,3.58324 3.78844,3.71254c1.82003,0.13853 3.38289,-0.80346 4.34236,-2.12409c0.84078,-1.1544 1.3947,-3.64789 1.35513,-6.11368c-0.01978,-0.98816 -0.03957,-2.23491 -0.05935,-3.58324c0.94958,-1.03434 2.01786,-2.3365 3.00701,-3.8603c1.07817,-1.66233 2.22558,-3.89724 2.81907,-5.63345c0,0 0.99904,0.00924 2.06732,-0.05541c0.3462,-0.01847 0.44512,0.04618 0.37588,0.27705c-0.07913,0.28629 -1.34524,4.86693 -0.18794,7.92377c0.79132,2.08715 2.59157,2.76131 3.64996,2.76131c1.24633,0 2.4333,-0.87734 3.07625,-2.1795c0.07913,0.14776 0.15826,0.28629 0.24729,0.41558c1.80025,2.66896 5.28205,2.08715 7.05263,-0.17547c0.39566,-0.50793 0.62316,-0.95122 0.62316,-0.95122c0.37588,2.21644 2.22558,2.89984 3.27408,2.89984c1.09795,0 2.14645,-0.42482 2.98723,-2.29032c0.03957,0.82193 0.08902,1.4961 0.17805,1.70851c0.04946,0.12929 0.36598,0.29553 0.59349,0.36941c1.00893,0.35094 2.02775,0.1847 2.41352,0.11082c0.26707,-0.04618 0.4649,-0.24935 0.49457,-0.75728c0.06924,-1.3391 0.02967,-3.58324 0.4649,-5.24557c0.73197,-2.79825 1.40459,-3.888 1.73101,-4.42364c0.17805,-0.30476 0.38577,-0.35094 0.39566,-0.03694c0.01978,0.64646 0.04946,2.53967 0.32642,5.07934c0.20772,1.87474 0.48468,2.97372 0.6924,3.32466c0.60338,0.9974 1.35513,1.04357 1.9684,1.04357c0.38577,0 1.19687,-0.10159 1.12763,-0.73881c-0.03957,-0.314 0.02967,-2.22567 0.74186,-4.98699c0.4649,-1.80086 1.24633,-3.42625 1.53318,-4.0173c0.10881,-0.22164 0.14837,-0.04618 0.14837,-0.00924c-0.05935,1.23751 -0.18794,5.29175 0.3462,7.50819c0.73197,3.00143 2.85864,3.34313 3.59061,3.34313c1.57275,0 2.86853,-1.11745 3.30375,-4.07271c0.12859,-0.6834 -0.02967,-1.23751 -0.49457,-1.23751l0,0l0,0zm0,0l0,0l0,0l0,0z" class="st0"/>
  </g>
 </g>
</svg>